<?xml version="1.0" encoding="UTF-8"?><svg id="Layer_1" xmlns="http://www.w3.org/2000/svg" viewBox="0 0 166.29 166.18"><defs><style>.cls-1{fill:#eddecf;}.cls-2{fill:#fdfcfc;}.cls-3{fill:#4d08f8;}.cls-4{fill:#36f5fe;}.cls-5{fill:#c5a182;}.cls-6{fill:#edddce;}.cls-7{fill:#6b24fe;}.cls-8{fill:#a3846b;}.cls-9{fill:#3f8bfe;}.cls-10{fill:#f65f0d;}.cls-11{fill:#fe8631;}.cls-12{fill:#196efd;}.cls-13{fill:#16f0fc;}.cls-14{fill:#e2c8b0;}.cls-15{fill:#fd5802;}.cls-16{fill:#fe650b;}</style></defs><path class="cls-11" d="M102.39,163.36c-22.1,6.01-42.91,2.23-62.23-9.29C9.3,135.65-3.82,101.67,.96,70.2,6.54,33.44,36.17,6.38,69.12,1.09c43.37-6.96,87.55,19.78,96,69.1,1.49,8.69,1.76,17.51-.42,26.21-2.71,.9-3.83-1.41-5.24-2.8-9.57-9.44-19.04-18.97-28.54-28.48-1.65-1.65-3.26-3.32-5.54-4.11-6.13-5.07-11.65-10.89-19.34-13.89-18.55-7.23-36.62-6.64-53.58,4.02-11.85,7.45-18.85,18.18-17.71,32.94-1.08,5.11,1.72,8.77,4.63,12.38,.55,2.63,2.59,4.19,4.33,5.94,18.43,18.46,36.9,36.88,55.29,55.39,1.51,1.52,4.04,2.64,3.38,5.56Z"/><path class="cls-15" d="M102.39,163.36c-1.29-1.5-2.49-3.09-3.88-4.48-18.87-18.91-37.77-37.79-56.64-56.71-1.47-1.48-3.55-2.65-3.35-5.23,1.3-.68,2.59-.28,3.86,.07,4.74,1.31,9.47,1.07,14.24,.13,10.54-2.08,13.12-.62,16.78,9.35,1.22,4.12,1.94,8.42,4.14,12.22,1.92,3.31,4.77,5.25,8.57,4.88,15.04-1.45,28.46-6.48,38.18-18.71,4.08-5.13,7.13-10.83,6.69-17.75,1.42-8.21-.32-15.81-4.34-22.99-.64-1.15-1.32-2.35-.6-3.74,2.39-.23,3.49,1.68,4.86,3.04,9.89,9.83,19.73,19.72,29.61,29.56,1.28,1.27,2.35,2.83,4.19,3.43-3.16,30.26-31.33,61.25-60.83,66.91-.48,.09-.99,.03-1.49,.05Z"/><path class="cls-2" d="M126.05,60.38c5.19,8.25,8.18,17.02,6.35,26.92-4.51,16.63-16.77,25.09-32.12,29.95-4.84,1.53-9.95,2.51-15.16,2.35-6.2-.19-8.72-1.93-10.5-7.81-.57-1.9-1.18-3.78-1.79-5.66-.26-.61-.3-1.29-.48-1.91-3.31-11.11-5.21-12.35-16.56-10.43-4.11,.7-8.14,1.08-12.25-.06-5.06-1.41-9.17-3.69-10.13-9.44-1.33-16.04,6.71-27.05,19.52-35.02,22.96-14.29,53.82-9.79,72.01,10.15,.33,.36,.74,.64,1.12,.96Z"/><path class="cls-1" d="M33.41,84.3c5.39,9.55,13.92,9.5,23.28,8.09,11.72-1.77,15.79,1.87,16.69,13.93,.53,1.01-.04,1.07-.82,.95-.64-1.52-1.21-3.07-1.93-4.55-2.38-4.91-4.96-6.14-10.36-4.89-7.34,1.7-14.63,2.55-21.76-.89-3.57-3.46-6.15-7.32-5.11-12.64Z"/><path class="cls-6" d="M72.56,107.26c.27-.32,.55-.64,.82-.95,1.01,.57,.95,1.67,1.28,2.58,3.38,9.47,6.37,10.68,16.52,9.09,19.25-3.03,33.27-12.66,41.23-30.67-.22,10.19-5.43,17.91-12.67,24.32-9.61,8.51-21.4,12.19-33.88,13.51-3.97,.42-7.6-1.55-9.47-5.56-1.83-3.92-2.9-8.09-3.81-12.31Z"/><path class="cls-11" d="M108.94,59.28c.6,5.19-1.47,8.51-5.7,9.14-4.43,.66-7.34-1.91-7.97-7.04,2.73-6.2,4.52-7.02,11.25-5.2l-.09-.03c.21,.53,.57,.9,1.11,1.09l-.06-.08c.4,.77,.25,1.91,1.46,2.11Z"/><path class="cls-9" d="M110.62,96.94c1.34,5.36-.68,9.13-5.37,10.05-4.14,.8-7.47-2.23-8.22-7.46,3.29-6.06,6.13-6.82,12.56-3.38l-.09-.06c.5,.12-.38,2.04,1.12,.86Z"/><path class="cls-4" d="M89.36,56.32c-.43,4.65-3.56,6.34-7.57,5.89-4.33-.48-6.71-3.27-6.34-7.9,1.87-3.56,4.82-5.5,8.8-4.82,3.56,.6,5,3.36,5.11,6.83Z"/><path class="cls-5" d="M117.24,80.24c-.02,4.43-2.53,6.83-6.68,6.99-4.47,.17-6.98-2.35-7.16-6.95,.95-3.94,3.68-5.77,7.52-5.9,3.89-.13,5.3,2.72,6.32,5.86Z"/><path class="cls-7" d="M70.37,65.31c-.56,3.29-2.83,4.74-5.84,5.09-3.29,.39-5.85-.78-7.06-4.12,.02-5.72,1.45-7.81,5.6-8.18,4.58-.42,6.2,1.18,7.3,7.21Z"/><path class="cls-14" d="M44.57,85.43c-1.94-2.95-.95-5.31,1.54-7.32,2.13-1.72,4.36-2.21,6.78-.52,2.97,2.07,3.17,4.75,1.8,7.8-3.38-2.03-6.75-.96-10.12,.04Z"/><path class="cls-3" d="M70.37,65.31c-1.27-3.82-2.92-6.78-7.96-6.07-4.53,.65-3.31,4.71-4.95,7.04-2.04-2.95-1.31-5.5,1.03-7.92,2.37-2.46,5.19-2.92,8.18-1.68,3.9,1.62,4.35,4.94,3.69,8.63Z"/><path class="cls-13" d="M89.36,56.32c-3.87-7.46-5.5-7.7-13.91-2.01,1.28-4.71,4.36-7.17,8.14-6.5,4.06,.72,6.24,3.93,5.77,8.51Z"/><path class="cls-10" d="M44.57,85.43c3.36-3.44,6.73-4.04,10.12-.04-3.63,4.35-6.11,4.36-10.12,.04Z"/><path class="cls-8" d="M117.24,80.24c-4.34-7.11-9.55-5.75-13.84,.04,.21-4.41,2.72-7.2,6.6-7.36,4.13-.17,6.74,2.47,7.23,7.32Z"/><path class="cls-12" d="M109.59,96.14c-4.8-1.16-9.3-1.2-12.56,3.38-.07-4.16,2.38-6.39,6.09-6.96,2.75-.42,5.65-.03,6.46,3.58Z"/><path class="cls-16" d="M106.52,56.18c-4.72-.37-8.76,.74-11.25,5.2-.49-2.96,.63-5.19,3.36-6.32,2.76-1.15,5.63-1.78,7.89,1.12Z"/><path class="cls-16" d="M108.94,59.28c-1.14-.25-1.66-.93-1.46-2.11,1.07,.3,1.14,1.3,1.46,2.11Z"/><path class="cls-12" d="M110.62,96.94c-.33,.15-.67,.31-1,.46-.04-.44-.08-.88-.11-1.31,.37,.28,.75,.57,1.12,.85Z"/><path class="cls-16" d="M107.53,57.25c-.37-.36-.74-.73-1.11-1.09,.71,.02,1.07,.39,1.11,1.09Z"/></svg>