<?xml version="1.0" encoding="UTF-8"?><svg id="Layer_1" xmlns="http://www.w3.org/2000/svg" viewBox="0 0 247.92 249"><defs><style>.cls-1{fill:#fdfefd;}.cls-2{fill:#4b8b15;}.cls-3{fill:#028280;}.cls-4{fill:#126819;}.cls-5{fill:#91c196;}.cls-6{fill:#009bcd;}.cls-7{fill:#79c628;}.cls-8{fill:#baddb9;}</style></defs><path class="cls-7" d="M107.14,246.78C55.64,241.4,10.75,196.39,1.69,144.57-9.56,80.25,36,6.84,119.03,.3c64.01-5.04,128.33,54.71,128.06,118.21-4.63,1.05-6.64-2.76-9.13-5.23-22.06-21.89-44.02-43.89-65.96-65.91-3.36-3.37-6.89-6.41-11.19-8.52-.68-.42-1.36-.79-2.1-1.1-15.93-1.93-31.9-.46-47.83-.86-5.98-.15-11.97,.02-17.95,.02-5.05,0-7.16,2.28-7.2,7.26-.06,7.98,.06,15.96-.1,23.94-.07,3.47,.16,7.05-2.4,9.93-3.14,2.66-7.28,1.15-10.71,2.57-9.23,1.03-13.78,7.96-18.47,14.71-7.1,1.23-9.89,5.47-9.17,12.55,.35,3.42,.04,6.9,.1,10.35,.06,3.4,.94,6.31,4.18,8.08,3.12,1.7,4.58,4.37,4.36,7.94-.02,.8-.13,1.58-.3,2.36-1.76,5.46-.72,11.1-1,16.65-.03,2.38,0,4.76-.27,7.13-.08,.77-.24,1.52-.45,2.26-1.27,6.56-1.32,13.12,.07,19.67,1.56,4.79,4.87,8.35,8.35,11.78,1.6,3.74,4.36,6.58,7.18,9.39,11.78,11.76,23.59,23.5,35.29,35.35,2.18,2.2,5.25,4.05,4.75,7.93Z"/><path class="cls-2" d="M107.14,246.78c-14.43-14.58-28.86-29.15-43.27-43.75-2.22-2.25-5.09-4.13-4.96-7.87,8.21-2.31,16.39,.89,24.59,.1,28.43-.52,56.87-.06,85.3-.33,18.13-.17,23.33-5.45,24.1-23.78,.6-5.24,.77-10.47-.83-15.6-.48-9.01-1.77-18-.97-27.06,11.23-3.12,9.39-12.13,9.66-20.58,.23-7-1.86-11.45-9.2-12.47-5.25-5.67-9.65-12.38-17.8-14.51-3.42-2.1-8.46,.17-11.08-4.09-1.89-8.57-.49-17.25-.88-25.87-.14-2.96,.04-5.94-.55-8.88,.06-1.43,.33-2.74,1.85-3.37,3.87-.34,5.65,2.73,7.9,4.93,25.38,24.93,50.73,49.89,76.09,74.84,3.26,23.45-3.36,45.1-14.48,64.96-24.56,43.84-63.32,64.57-113.05,65.52-4.12,.08-8.27-1.44-12.41-2.22Z"/><path class="cls-3" d="M82.91,197.5c-8.13,.53-16.23,.84-24-2.35-4.73-2.53-7.08-6.94-9.11-11.59-.76-7.11-.8-14.21,.02-21.32,.18-.25,.35-.5,.52-.75,.97-2.74,.28-5.57,.49-8.35,.11-5.32-.23-10.65,.19-15.97,.25-1.02,.5-2.05,.76-3.07-.43-9.02-1.97-17.97-1.37-27.06,.31-4.74,.51-9.39,3.69-13.27,1.83-9.49,8.56-13.35,17.22-14.99,3.3-.54,6.61-.36,9.93-.11,.77,.44,1.35,1.05,1.74,1.85,.94,4.35,1.35,8.66-.77,12.82-1.53,1.83-4.3,3.16-3.09,6.21,1.47,3.72,4.98,3.86,8.21,3.92,19.47,.37,38.95,.06,58.42,.19,3.96,.03,8.02-.47,11.76,1.48,2.31,1.74,2.63,4.28,1.92,6.66-2.47,8.21-5.22,16.34-11.37,22.74-14.02,2.13-28.12,.29-42.17,.95-13.79,.65-27.68-1.64-41.36,1.37-2.29,1.38-2.33,3.52-1.93,5.82-.14,10.71-1.61,21.35-1.04,32.08,.47,8.88,2.27,10.74,11.21,11.3,6.93,.43,13.96-.96,20.8,1.13,3.75,2.58,.93,4.43-.78,6.27-2.65,2.85-6.65,2.58-9.9,4.05Z"/><path class="cls-8" d="M81.89,78.12c.23-12.19,.6-24.38,.64-36.57,.01-4.37,.81-7.31,5.98-7.3,22.94,.05,45.89,0,68.83,.05,2.19,0,4.64,.11,5.12,3.14,.22,13.54-.83,27.1,.9,40.61,2.08,5.56,1.65,11.16,.32,16.78-1.8,3.64-5.04,4.46-8.72,4.48-21.35,.09-42.69,.09-64.04,0-3.3-.01-6.52-.32-8.32-3.73-.97-5.45,.43-11-.68-16.45l-.17-.39,.15-.64Z"/><path class="cls-4" d="M54.1,93.75c-.78,13.45-1.55,26.89-2.32,40.34-7.85-7.41-9.87-16.29-9.45-27.09,.35-8.96,2.27-13.72,11.77-13.25Z"/><path class="cls-1" d="M162.49,77.56c-2.31-13.37-2.22-26.75-.04-40.12,.09,.49,.31,.92,.65,1.29-.02,1.07-.04,2.14-.06,3.2-.06,11.88,.98,23.77-.55,35.63Z"/><path class="cls-5" d="M49.82,162.24c0,7.11-.01,14.22-.02,21.32-1.58-7.11-1.54-14.22,.02-21.32Z"/><path class="cls-2" d="M51.02,137.16c.03,5.68,.07,11.37,.1,17.05,0,0-.74,.03-.74,.03,.21-5.69,.42-11.39,.63-17.08Z"/><path class="cls-5" d="M81.89,78.12s-.15,.64-.15,.64c-3.47,0-6.94,0-10.41,0,3.52-.22,7.05-.43,10.57-.65Z"/><path class="cls-4" d="M50.39,154.24s.74-.04,.74-.03c-.27,2.43-.53,4.86-.79,7.28,.02-2.42,.03-4.83,.05-7.25Z"/><path class="cls-6" d="M82.91,197.5c4.08-2.9,8.16-5.81,12.24-8.71,2.64-3.27,6.37-2.34,9.72-2.32,21.14,.13,42.28-.33,63.42-.53,14.66-.14,15.31-.91,15.54-15.84,.14-8.99-.93-17.87-1.53-26.79-.39-5.81-3.41-7.89-8.62-7.9-5.71,0-11.42,.24-17.13-.05-2.72-.14-5.54,.25-7.51-2.28,.86-9.62,9.37-16.63,9.1-26.65,.13-.21,.2-.52,.39-.63q9.29-5.28,4.7-14.91c.3-3.96-.63-7.98,.58-11.89,3.77-.87,7.54-.81,11.31-.04,7.34,3.09,14.25,6.65,16.28,15.37,3.57,10.91,6.01,21.86,1.37,33.1,.55,9.5,1.09,19.01,1.64,28.51,.91,4.79-.53,9.71,.82,14.47,1.77,18.97-5.76,27.32-24.72,27.29-29.2-.04-58.4-.14-87.6-.21Z"/><path class="cls-4" d="M192.77,127.44c-.46-11.04-.91-22.07-1.37-33.11,8.91-1.41,12.37,2.45,11.58,11.28-.49,5.43,.22,10.96-.2,16.4-.5,6.53-4.47,7.67-10.01,5.42Z"/><path class="cls-7" d="M164.26,78.94c-.01,4.73-.02,9.46-.03,14.19,1.4,2.51,1.96,4.77-1.71,5.78-1.28-1.52-1.02-3.05-.04-4.59,0-5.58,0-11.16,0-16.75,.18-11.88,.37-23.76,.55-35.63,.27,11.89,.55,23.77,.82,35.66,.5,.18,.72,.43,.67,.77-.05,.38-.14,.57-.28,.57Z"/><path class="cls-4" d="M195.23,170.41c-2.53-4.7-1.02-9.62-.82-14.47,.27,4.83,.55,9.65,.82,14.47Z"/><path class="cls-5" d="M164.26,78.94c-.29-.4-.42-.85-.4-1.34,3.76,.45,7.51,.91,11.27,1.36-3.63,0-7.25-.02-10.87-.02Z"/><path class="cls-4" d="M149.04,133.07c3.74,.01,7.49,.04,11.23,.04,25.14,0,25.48-.02,25.9,25.48,.53,32.08,4.82,30.11-28.86,30.01-20.72-.06-41.44,.11-62.16,.18-1.49-.08-2.98-.21-4.47-.22-37.57-.1-32.21,4.75-30.72-37.79,.12-3.46,.23-6.92,.35-10.38-.64-1.36-.7-2.72,.07-4.06,2.17-3.76,5.83-3.22,9.3-3.22,26.45-.01,52.9-.03,79.35-.04Z"/><path class="cls-4" d="M162.9,98.35c.44-1.74,.89-3.48,1.33-5.23,5.05,.04,6.17,3.51,5.51,7.36-1.16,6.72-7.17,5.01-11.6,5.95-24.32-.1-48.65-.17-72.97-.34-3.98-.03-8.44-.23-9.33-5.27-.69-3.89,.24-7.55,5.51-7.55,1.72,1.67,2.05,4.97,5.46,4.67,25.37,.26,50.73-.54,76.08,.41Z"/><path class="cls-7" d="M82.6,98.37c-.41-1.7-.83-3.4-1.24-5.1,.18-4.71,.36-9.42,.55-14.13,.41,5.1,.82,10.2,1.23,15.3,.66,1.42,1.46,2.87-.53,3.93Z"/><path class="cls-6" d="M60.38,136.34c-.02,1.35-.05,2.71-.07,4.06-1.54-1.38-1.52-2.73,.07-4.06Z"/><path class="cls-5" d="M123.47,52.2c8.47,0,16.94-.1,25.4,.1,1.39,.03,2.75,1.37,4.12,2.11-1.35,.76-2.7,2.16-4.06,2.17-17.43,.15-34.87,.15-52.3,0-1.38-.01-2.75-1.37-4.13-2.11,1.35-.76,2.7-2.14,4.07-2.17,8.96-.2,17.93-.1,26.89-.1Z"/><path class="cls-5" d="M122.1,68.71c-8.47,0-16.93,.1-25.4-.1-1.41-.03-3.88-1.22-3.96-2.07-.24-2.38,2.09-2.27,3.78-2.28,17.43-.03,34.86-.07,52.29,.07,1.4,.01,3.98,1.36,3.96,2.05-.06,2.88-2.68,2.28-4.53,2.29-8.71,.07-17.43,.03-26.15,.03Z"/><path class="cls-5" d="M122.46,80.75c-8.47,0-16.93,.05-25.4-.04-1.81-.02-4.55,.58-4.26-2.47,.07-.78,2.66-1.87,4.11-1.88,17.18-.13,34.37-.11,51.55-.05,1.8,0,4.55-.6,4.25,2.46-.08,.79-2.65,1.86-4.1,1.89-8.71,.18-17.43,.09-26.15,.09Z"/><path class="cls-1" d="M82.6,98.37c.18-1.31,.36-2.62,.53-3.93,5.71,4.27,73.86,4.15,79.35-.13,.14,1.35,.27,2.7,.41,4.04-26.76,0-53.53,.01-80.3,.02Z"/><path class="cls-8" d="M123.35,175.7c6.96,0,13.91-.02,20.87,0,3.35,.01,6.2,1.21,6.02,4.97-.15,3.14-2.59,4.58-5.74,4.58-14.41,0-28.82,0-43.23,0-3.42,0-6.14-1.37-6-5.02,.14-3.75,3.17-4.57,6.46-4.55,7.21,.03,14.41,.01,21.62,.01Z"/><path class="cls-8" d="M122.99,148.81c2.89,.34,4.65,2.05,4.55,4.85-.1,2.74-1.98,4.81-4.74,4.74-3.02-.08-5.15-2.1-4.88-5.31,.23-2.77,2.21-4.26,5.07-4.29Z"/><path class="cls-8" d="M143.74,135.82c3.04,.16,4.69,2.07,4.62,4.8-.07,2.73-1.88,4.68-4.85,4.58-2.93-.1-4.66-2.07-4.64-4.83,.02-2.84,1.91-4.46,4.87-4.55Z"/><path class="cls-8" d="M157.33,145.27c-2.87-.45-4.53-2.08-4.32-5.03,.2-2.91,1.95-4.52,4.94-4.35,2.99,.18,4.61,2.04,4.4,4.9-.21,2.81-2.08,4.37-5.01,4.47Z"/><path class="cls-8" d="M101.85,171.25c-2.91,0-4.62-1.75-4.76-4.46-.14-2.73,1.54-4.77,4.35-4.97,3.24-.24,5.18,1.96,5.25,4.9,.06,2.69-1.85,4.42-4.83,4.54Z"/><path class="cls-8" d="M99.61,153.34c-.07,3.07-1.92,4.82-4.58,5.01-2.81,.2-4.6-1.56-4.77-4.56-.17-3.1,1.64-4.79,4.41-4.91,2.78-.11,4.62,1.54,4.94,4.46Z"/><path class="cls-8" d="M85.84,153.62c-.53,2.64-2.03,4.72-4.77,4.78-3.14,.06-5.03-2.03-4.88-5.19,.13-2.89,2.18-4.44,4.94-4.34,2.78,.1,4.42,1.86,4.72,4.76Z"/><path class="cls-8" d="M113.36,153.78c-.13,2.91-1.83,4.72-4.57,4.57-2.95-.16-5.06-2.08-4.75-5.31,.27-2.82,2.37-4.39,5.07-4.18,2.69,.21,4.45,1.88,4.26,4.92Z"/><path class="cls-8" d="M136.61,148.75c2.69,.36,4.76,1.68,4.85,4.53,.1,3.19-2.04,5.06-5.03,5.08-2.82,.02-4.36-2.06-4.37-4.86-.01-2.91,1.78-4.36,4.56-4.75Z"/><path class="cls-8" d="M151.93,158.14c-.97-.05-1.94-.1-2.91-.15-.61-.04-1.05-.32-1.31-.89-2.85-2.53-2.66-5.3,.27-7.26,1.25-.84,4.03-.82,5.27,.04,2.86,1.99,2.95,4.76,.21,7.28-.41,.49-.92,.81-1.53,.98Z"/><path class="cls-8" d="M148.49,166.27c-.29,2.61-1.35,4.65-4.35,4.87-2.8,.2-4.93-1.07-5.25-3.89-.35-3.13,1.56-5.2,4.61-5.44,2.83-.23,4.35,1.74,4.98,4.47Z"/><path class="cls-8" d="M78.68,140.88c-.52,2.81-2.13,4.51-5.07,4.3-2.95-.21-4.46-2.08-4.27-5.01,.19-2.99,2.02-4.47,4.96-4.28,3,.19,4.31,2.06,4.39,4.98Z"/><path class="cls-8" d="M176.16,140.38c-.08,2.95-1.54,4.74-4.51,4.81-2.95,.07-4.67-1.6-4.78-4.54-.11-2.98,1.52-4.67,4.5-4.75,2.97-.08,4.59,1.49,4.8,4.48Z"/><path class="cls-8" d="M115.81,145.28c-3-.31-4.62-1.83-4.56-4.85,.06-3.03,1.69-4.61,4.69-4.54,2.97,.07,4.68,1.78,4.61,4.71-.07,2.92-1.95,4.39-4.73,4.68Z"/><path class="cls-8" d="M106.87,140.3c-.79,2.81-2.1,4.92-5.07,4.91-2.98,0-4.71-2.04-4.71-4.76,0-2.74,1.74-4.6,4.78-4.62,3.13-.02,4.16,2.17,4.99,4.47Z"/><path class="cls-8" d="M92.51,140.38c-.19,2.87-1.57,4.76-4.55,4.8-2.92,.04-4.73-1.75-4.85-4.56-.12-2.88,1.59-4.63,4.56-4.74,3.04-.12,4.49,1.62,4.84,4.5Z"/><path class="cls-8" d="M78.73,166.11c-.28,3.37-1.89,5.04-4.78,5.01-2.88-.03-4.63-1.63-4.6-4.65,.04-2.97,1.79-4.67,4.63-4.68,2.91-.01,4.27,2.02,4.75,4.31Z"/><path class="cls-8" d="M129.8,135.84c2.94,.26,4.54,1.79,4.44,4.81-.09,3.01-1.77,4.64-4.71,4.54-2.92-.1-4.58-1.9-4.53-4.81,.04-2.99,1.87-4.41,4.8-4.53Z"/><path class="cls-8" d="M129.44,161.68c2.86,.22,4.63,1.58,4.8,4.57,.18,3.04-1.45,4.74-4.34,4.86-2.83,.12-4.8-1.34-4.9-4.36-.1-2.93,1.72-4.44,4.44-5.08Z"/><path class="cls-8" d="M166.76,166.68c.37-3.2,2.03-4.95,4.87-4.89,2.86,.07,4.53,1.88,4.5,4.84-.03,3.05-1.9,4.55-4.75,4.5-2.91-.05-4.42-1.83-4.62-4.45Z"/><path class="cls-8" d="M162.45,166.68c-.43,2.96-2.11,4.53-5,4.43-2.96-.1-4.56-1.8-4.41-4.79,.14-2.92,1.82-4.7,4.75-4.5,2.81,.19,4.27,2.15,4.66,4.86Z"/><path class="cls-8" d="M87.71,161.7c3.01,.26,4.66,1.86,4.73,4.76,.07,2.99-1.63,4.64-4.56,4.66-2.89,.02-4.77-1.57-4.76-4.51,.01-2.87,1.99-4.33,4.59-4.91Z"/><path class="cls-8" d="M120.61,166.91c-.5,2.91-2.32,4.43-5.15,4.23-2.89-.2-4.48-1.96-4.23-5,.24-2.99,2.03-4.64,4.91-4.32,2.74,.3,4.34,2.18,4.48,5.09Z"/><path class="cls-5" d="M147.72,157.1c.44,.3,.87,.59,1.31,.89-.44-.3-.87-.59-1.31-.89Z"/><path class="cls-5" d="M151.93,158.14c.51-.33,1.02-.66,1.53-.99-.51,.33-1.02,.66-1.53,.99Z"/></svg>