<?xml version="1.0" encoding="UTF-8"?><svg id="Layer_1" xmlns="http://www.w3.org/2000/svg" viewBox="0 0 40.09 40.22"><defs><style>.cls-1{fill:#f2e5f5;}.cls-2{fill:#e565c1;}.cls-3{fill:#f2bcc1;}.cls-4{fill:#a0b3ef;}.cls-5{fill:#86299a;}.cls-6{fill:#fefefe;}</style></defs><path class="cls-2" d="M15.02,39.25c-5.5-1.27-9.47-4.58-12.29-9.35C1,26.98-.05,23.74,0,20.38,.15,10.57,6.47,2.57,16.21,.42c9.64-2.13,19.74,4.16,22.66,12.92,.07,.22,.1,.46,.14,.69-.37,.17-.62-.08-.83-.29-2.44-2.44-4.96-4.81-7.28-7.35-.04,.07,.02,.11,.04,.17,.7,3.25,1.33,6.51,1.97,9.76,.35,1.77,.15,2.05-1.64,2.45-.39,.09-.78,.18-1.16,.29-.13,.04-.26,.06-.39,.08-.13,.02-.26,.03-.4,.05-1.08,.24-2.17,.41-3.25,.65-.47,.1-1.02,.32-1.41-.23-.35-1.89-.23-3.79-.08-5.69,.15-.55,.65-.64,1.09-.81,1.6-.59,2.42-1.74,2.46-3.45,.02-1.12-.02-2.23,.05-3.35,.06-.92-1.39-2.35-2.5-2.53-1.82-.3-3.09,.41-3.82,2.13-.2,.47-.33,1-.9,1.2-2.28,.24-4.56,.07-6.84,.15-.12,.02-.25,.04-.37,.06-.06,.02-.12,.03-.18,.05-1.81,1.13-3.27,2.6-4.34,4.46-.07,6.78,0,13.55-.02,20.31,.01,.19,0,.38,.05,.56,1.49,1.9,3.37,3.43,5,5.2,.35,.38,.95,.65,.76,1.35Z"/><path class="cls-5" d="M15.02,39.25c-2-2.09-4.01-4.19-6.01-6.28,.5-.48,1.12-.33,1.7-.33,5.61-.01,11.23,0,16.84-.01,.51,0,1.04,.06,1.54-.11,.12-.08,.23-.17,.31-.29,.21-.46,.14-.94,.14-1.42,0-3.46,0-6.93,0-10.39,0-.55-.09-1.13,.3-1.6,.06-.05,.12-.12,.19-.14q2.77-.84,2.22-3.74c-.57-3.01-1.12-6.02-1.68-9.03l.04-.04c2.79,2.72,5.59,5.44,8.38,8.17,2.69,6.11-.02,14.96-4.08,19.24-3.55,3.75-7.73,5.88-12.65,6.74-2.44,.43-4.91,.14-7.26-.77Z"/><path class="cls-6" d="M13.55,6.89c2.57-.03,5.14-.07,7.71-.1,.49-.35,1.01-.35,1.54-.11,.36,.88-.43,.87-.86,.98-1.12,.3-2.29,.28-3.42,.54-1.61,.36-1.62,.35-1.3,1.97,.16,.82,.36,1.64,.48,2.46,.06,.42,.24,.87-.15,1.24-.44,.14-.74-.16-1.08-.36-1.66-.96-3.53-.66-4.58,.73-1.19,1.59-1.06,3.24,.36,4.69,1.53,1.38,3.24,1.36,4.73-.04,.52-.25,.66-.99,1.32-1.07,.31,.16,.48,.45,.5,.75,.07,1.06,.64,1.79,1.47,2.38,.21,.85,.32,1.69-.16,2.5-.48,.37-1.05,.33-1.61,.34-1.79,.02-3.59,0-5.39,0-.36,0-.72,0-1.07,.06-.19,.04-.42,.08-.45,.32-.04,.33,.23,.38,.46,.42,.59,.1,1.19,.06,1.79,.06,1.56,0,3.11,0,4.67,0,.55,0,1.13-.03,1.6,.36,.36,.57,.36,1.14,.04,1.72-.49,.46-1.11,.39-1.7,.4-1.76,.02-3.51,0-5.27,0-.36,0-.72-.01-1.07,.06-.23,.04-.51,.07-.49,.4,.02,.24,.24,.3,.44,.34,.39,.08,.79,.08,1.19,.08,1.76,0,3.51,0,5.27,0,.55,0,1.13-.03,1.6,.36,.47,.73,.33,1.55,.31,2.34-.02,.95,.33,1.38,1.32,1.37,1.96-.03,3.92-.03,5.87,0,.98,.01,1.35-.4,1.34-1.36,0-3.36-.01-6.71,0-10.07,0-.63-.08-1.29,.41-1.82,.07-.03,.15-.04,.22-.01,.1,.13,.13,.28,.13,.45,0,4.37,0,8.75,0,13.12,0,.13-.06,.23-.1,.34l-.02,.02c-.26,.15-.54,.1-.82,.1-6.36,0-12.72,0-19.08,0-.3,0-.64,.12-.9-.17,0-6.88-.02-13.76-.02-20.64,0-.27,.1-.53,.15-.8,.93-.31,1.88-.25,2.83-.23,.81,0,1.12-.35,1.14-1.15,.03-.93-.23-1.92,.4-2.77h0c.06-.07,.12-.14,.19-.2Z"/><path class="cls-1" d="M29.42,18.85c0,4.15-.03,8.31,.02,12.46,.01,.95-.28,1.24-1.22,1.21-2.31-.06-4.63-.06-6.95,0-.95,.02-1.29-.26-1.22-1.22,.07-.95,.01-1.92,.01-2.87,.44-.47,1.02-.39,1.57-.4,1.48-.03,2.95,.01,4.43-.02,.37,0,.99,.1,.99-.38,.01-.62-.65-.44-1.04-.45-1.47-.05-2.95,0-4.43-.03-.54-.01-1.14,.08-1.54-.45,0-.52,0-1.03,0-1.55,.35-.52,.9-.45,1.4-.46,1.36-.03,2.71,0,4.07-.01,.36,0,.72,.01,1.07-.06,.23-.05,.51-.08,.49-.4-.02-.3-.31-.32-.54-.36-.32-.05-.64-.05-.95-.05-1.36,0-2.71,.01-4.07,0-.51,0-1.05,.04-1.46-.38,0-.88,0-1.76,0-2.64,.08-.3,.3-.5,.57-.55,1.41-.26,2.76-1.06,4.27-.46,1.51-.3,3.01-.6,4.52-.9Z"/><path class="cls-3" d="M24.9,19.75c-1.64,.22-3.27,.48-4.84,1.01-1.05,.23-1.25-.47-1.41-1.25-.12-.58-.31-1.14-.46-1.71-.42-1.28-.77-2.58-.73-3.95-.26-1.55-.45-3.11-.79-4.65-.17-.8,.05-1.06,.8-1.17,1.48-.21,2.95-.46,4.41-.73,.38-.07,.73-.28,1.09-.43,.44-.47,.95-.75,1.62-.49,1.11,1.31,.59,2.81,.5,4.26-.35,.64-.82,.49-1.29,.15-.57-.41-1.34-.86-1.78-.26-.42,.57,.32,1.19,.72,1.71,.56,.73,1.6,.66,2.19,1.34-.01,2.05-.02,4.1-.04,6.16Z"/><path class="cls-5" d="M24.94,13.6c-1.28-.15-2.38-.64-3.01-1.83-.29-.54-.97-1.41-.36-1.7,.62-.3,1.8-.67,2.37,.5,.19,.4,.56,.39,.92,.39,.05-.02,.1-.03,.15-.05,.09-.06,.17-.13,.25-.2,.88-1.2,.5-2.52,.31-3.79-.08-.58-.67-.6-1.17-.55-.42,.3-.87,.56-1.42,.54-.57-.03-1.14-.06-1.71-.1,.62-3.45,3.39-4,5.31-3.04,1.12,.56,2.3,1.41,2.01,3.18-.31,1.89,.51,3.96-1.23,5.59-.73,.68-1.48,1.01-2.41,1.08Z"/><path class="cls-4" d="M13.36,7.09c.01,.32,.04,.63,.04,.95,.01,3.61-.73,4.14-4.41,3.2,1.44-1.41,2.56-3.15,4.38-4.15Z"/><path class="cls-3" d="M8.86,32.69c6.93,.02,13.86,.05,20.8,.07-.36,.38-.83,.19-1.24,.19-6.47,.02-12.93,.02-19.4,.02-.05-.1-.1-.19-.15-.29Z"/><path class="cls-3" d="M29.67,32.74c-.01-4.64-.02-9.27-.03-13.91,.07-.01,.14-.02,.22-.02,0,4.39,.02,8.78,.02,13.17,0,.26,.12,.57-.2,.75Z"/><path class="cls-5" d="M30.59,5.91s-.05-.08-.08-.12c.04,.03,.08,.06,.12,.08,0,0-.04,.04-.04,.04Z"/><path class="cls-4" d="M13.55,6.89c-.06,.07-.13,.14-.19,.2,.06-.07,.13-.14,.19-.2Z"/><path class="cls-4" d="M20.07,23.41c2.23,0,4.46,.01,6.69,0,.57,0,.99,.02,1,.8,0,.79-.35,.91-1.02,.9-2.23-.01-4.46,.02-6.68,.03-2.67-.02-5.34-.05-8-.06-.6,0-1.07,.02-1.08-.84,0-.88,.51-.82,1.09-.82,2.67,0,5.34-.02,8.01-.03Z"/><path class="cls-4" d="M20.05,26.69c2.23,.01,4.46,.04,6.69,.03,.67,0,1.02,.13,1.01,.91,0,.78-.43,.8-1,.8-2.23,0-4.46,0-6.69,0-2.66-.01-5.32-.03-7.98-.03-.62,0-1.08-.04-1.1-.86-.03-.89,.52-.8,1.09-.8,2.66-.01,5.32-.03,7.98-.05Z"/><path class="cls-5" d="M17.46,13.86c.52,1.26,.81,2.57,.73,3.95-.29,.48-.36,1.14-1.05,1.29-.3-.12-.57-.28-.8-.52-.39-.41-1.09-.47-1.33-.98-.32-.66,.51-.9,.7-1.39,.21-.54,.17-1.03-.25-1.43-.42-.41-.93-.44-1.43-.16-.53,.3-.56,.79-.51,1.35,.05,.64,.88,.84,.8,1.53-.05,.1-.11,.19-.19,.27-.73,.33-1.37,.8-1.99,1.29-1.88-.9-1.62-3.9-.38-5.18,1.61-1.66,3.73-1.68,5.71-.02Z"/><path class="cls-1" d="M12.13,19.06c.32-.89,.93-1.4,1.89-1.43h.03c.28-.45-.19-.4-.35-.55-.78-.75-1.08-1.62-.29-2.5,.69-.76,1.57-.81,2.31-.07,.83,.82,.76,1.72-.13,2.47-.38,.33-.82,.44,.05,.69,.7,.2,1.23,.71,1.49,1.43-.56,1.19-1.65,1.22-2.7,1.15-.9-.06-1.93-.04-2.31-1.19Z"/><path class="cls-2" d="M24.39,6.35c.59-.55,1.46-.44,1.56,.31,.16,1.28,.07,2.6-.02,3.9-.01,.2-.55,.37-.84,.55-.08-.06-.16-.12-.24-.19,0,0,0,.02,0,.02-.1-1.54,.45-3.14-.46-4.6Z"/><path class="cls-3" d="M24.85,10.93c.08,.06,.16,.13,.24,.19-.08-.06-.16-.13-.24-.19Z"/><path class="cls-6" d="M14.06,17.62c.17,.04,.34,.09,.51,.13-.02,.03-.05,.09-.06,.08-.16-.06-.32-.14-.47-.21,0,0,.03,0,.03,0Z"/></svg>