<svg id="Capa_1" enable-background="new 0 0 512 512" height="512" viewBox="0 0 512 512" width="512" xmlns="http://www.w3.org/2000/svg"><g><g><g><g><g><g><g><circle cx="256" cy="256" fill="#7583f1" r="256"/></g></g></g></g></g></g><path d="m512 256c0-17.021-1.661-33.653-4.83-49.745l-122.808-122.808-256.724 345.106 78.617 78.617c16.092 3.169 32.724 4.83 49.745 4.83 141.385 0 256-114.615 256-256z" fill="#4253cd"/><g><g><path d="m203.342 83.447-32.185 54.388-43.519 21.316v269.402h256.724v-345.106z" fill="#fff"/></g><g><path d="m256 83.447h128.362v345.105h-128.362z" fill="#e9edf5"/></g><g><path d="m203.342 159.151v-75.704l-75.704 75.704z" fill="#dce1eb"/></g></g><g><g><path d="m229.84 206.528h17.652v-54.305l-17.652 17.375z" fill="#ffcd00"/></g><g><path d="m229.84 104.681 80.99 32.457-80.99 32.46z" fill="#ff9500"/></g><g><path d="m256 115.164v43.949l54.83-21.975z" fill="#fe6a16"/></g></g><g><path d="m154.027 237.562h203.945v25.582h-203.945z" fill="#dce1eb"/></g><g><path d="m256 237.562h101.973v25.582h-101.973z" fill="#bec3d2"/></g><g><path d="m154.027 285.199h203.945v25.582h-203.945z" fill="#dce1eb"/></g><g><path d="m256 285.199h101.973v25.582h-101.973z" fill="#bec3d2"/></g><g><path d="m289.48 468.138-33.48-10.001-33.48 10.001v-86.742h66.96z" fill="#a3d4ff"/></g><g><path d="m256 458.137 33.48 10.001v-86.742h-33.48z" fill="#65b1fc"/></g><g><path d="m314.267 381.396-12.349 14.921 1.222 19.332-18.771 4.802-10.36 16.374-18.009-7.162-18.009 7.162-10.36-16.375-18.771-4.801 1.222-19.332-12.349-14.921 12.349-14.921-1.222-19.333 18.771-4.801 10.36-16.374 18.009 7.162 18.009-7.162 10.36 16.374 18.771 4.802-1.222 19.332z" fill="#ff9500"/></g><g><path d="m256 429.663 18.009 7.162 10.36-16.375 18.771-4.801-1.222-19.332 12.349-14.921-12.349-14.921 1.222-19.332-18.771-4.802-10.36-16.374-18.009 7.162z" fill="#fe6a16"/></g><g><circle cx="256" cy="381.396" fill="#ffcd00" r="30.253"/></g><g><path d="m256 411.649c16.708 0 30.253-13.545 30.253-30.253s-13.545-30.253-30.253-30.253z" fill="#fdba12"/></g></g></svg>