<?xml version="1.0" encoding="iso-8859-1"?>
<!-- Generator: Adobe Illustrator 19.0.0, SVG Export Plug-In . SVG Version: 6.00 Build 0)  -->
<svg version="1.1" id="Capa_1" xmlns="http://www.w3.org/2000/svg" xmlns:xlink="http://www.w3.org/1999/xlink" x="0px" y="0px"
	 viewBox="0 0 512 512" style="enable-background:new 0 0 512 512;" xml:space="preserve">
<circle style="fill:#FFD400;" cx="256" cy="256" r="256"/>
<path style="fill:#FF9F00;" d="M508.764,296.715L308.888,96.839L181.545,244.654l-21.273-21.272L139,276.563l34.933,83.258
	l56.426,56.433l-48.813,21.273L256.018,512C383.537,511.991,489.26,418.741,508.764,296.715z"/>
<rect x="149.64" y="244.66" style="fill:#444444;" width="212.73" height="21.273"/>
<rect x="256" y="244.66" style="fill:#292929;" width="106.36" height="21.273"/>
<path style="fill:#E7E7E7;" d="M330.455,244.655v-94.909c0-41.087-32.938-75.039-74.024-75.272
	c-41.253-0.234-74.885,33.254-74.885,74.453v95.727c0,5.874,4.762,10.636,10.636,10.636h127.636
	C325.692,255.291,330.455,250.529,330.455,244.655z"/>
<path style="fill:#D3D3D8;" d="M319.818,255.291c5.874,0,10.636-4.762,10.636-10.636v-94.908c0-41.087-32.938-75.039-74.024-75.272
	v180.817h63.388V255.291z"/>
<path style="fill:#5A5A5A;" d="M181.545,244.655v31.909c0,41.056,33.398,74.455,74.455,74.455s74.455-33.398,74.455-74.455v-31.909
	L181.545,244.655L181.545,244.655z"/>
<g>
	<path style="fill:#444444;" d="M256,244.655v106.364c41.056,0,74.455-33.398,74.455-74.455v-31.909L256,244.655L256,244.655z"/>
	<rect x="266.64" y="159.56" style="fill:#444444;" width="21.273" height="21.273"/>
</g>
<g>
	<rect x="245.36" y="202.11" style="fill:#5A5A5A;" width="21.273" height="21.273"/>
	<rect x="224.09" y="159.56" style="fill:#5A5A5A;" width="21.273" height="21.273"/>
	<rect x="245.36" y="117.02" style="fill:#5A5A5A;" width="21.273" height="21.273"/>
</g>
<g>
	<rect x="256" y="117.02" style="fill:#444444;" width="10.636" height="21.273"/>
	<rect x="256" y="202.11" style="fill:#444444;" width="10.636" height="21.273"/>
	<rect x="245.36" y="382.93" style="fill:#444444;" width="21.273" height="43.964"/>
</g>
<path style="fill:#5A5A5A;" d="M373,223.382v53.182c0,64.456-52.543,117-117,117s-117-52.544-117-117v-53.182h21.273v53.182
	c0,52.756,42.971,95.727,95.727,95.727s95.727-42.971,95.727-95.727v-53.182L373,223.382L373,223.382z"/>
<rect x="256" y="382.93" style="fill:#292929;" width="10.636" height="43.964"/>
<path style="fill:#444444;" d="M373,223.382v53.182c0,64.456-52.543,117-117,117v-21.273c52.756,0,95.727-42.971,95.727-95.727
	v-53.182L373,223.382L373,223.382z"/>
<rect x="181.54" y="416.25" style="fill:#5A5A5A;" width="148.91" height="21.273"/>
<rect x="256" y="416.25" style="fill:#444444;" width="74.45" height="21.273"/>
<g>
</g>
<g>
</g>
<g>
</g>
<g>
</g>
<g>
</g>
<g>
</g>
<g>
</g>
<g>
</g>
<g>
</g>
<g>
</g>
<g>
</g>
<g>
</g>
<g>
</g>
<g>
</g>
<g>
</g>
</svg>
