<?xml version="1.0" encoding="UTF-8"?><svg id="Layer_1" xmlns="http://www.w3.org/2000/svg" viewBox="0 0 165.63 165.69"><defs><style>.cls-1{fill:#f83f5d;}.cls-2{fill:#fefdfd;}.cls-3{fill:#b83448;}</style></defs><path class="cls-1" d="M58.95,161.79c-15.53-3.96-28.07-12.73-38.49-24.58C6.58,121.44-.36,102.73,.01,81.84,.76,40.03,30.24,8.67,66.56,1.61c44.29-8.61,85.94,18.21,96.79,62.07,.63,2.57,.92,5.22,1.37,7.83-.39-.31-.83-.57-1.15-.94-10.43-12.03-20.83-24.09-31.33-36.05-.86-.97-2.5-1.25-3.78-1.86-1.86-.34-3.77-1.15-5.56-.94-15.86,1.93-31.7,4.03-47.53,6.12-3.72,.49-7.43,1.14-11.5,1.77V110c-1.81-1.31-2.95-2.21-4.16-3-7.08-4.62-16.2-4.55-23.07,.15-10.2,6.98-10.44,18.43-.58,27.9,.66,.5,1.32,1,1.98,1.51,0,0-.03-.11-.03-.11,.36,.35,.72,.71,1.08,1.06-.01-.21,.08-.34,.29-.38,1.84,2.64,3.53,5.41,5.56,7.9,4.59,5.65,9.34,11.16,14.03,16.73Z"/><path class="cls-3" d="M128.44,32.67c1.28,.6,2.93,.88,3.78,1.86,10.51,11.96,20.9,24.02,31.33,36.05,.32,.37,.76,.63,1.15,.94,6.54,41.92-22.39,83.46-64.08,92.19-14.09,2.95-27.98,2.89-41.68-1.9-4.69-5.57-9.44-11.08-14.03-16.73-2.03-2.49-3.72-5.26-5.56-7.9,.65,.15,1.31,.23,1.94,.45,12.31,4.29,27.48-3.43,26.65-20.15-.65-13.1-.13-26.26-.13-39.4,0-4.96,0-9.91,0-15.17,1.63-.17,2.9-.31,4.17-.45l.36,.05,.34-.13c11.88-1.61,23.75-3.22,35.63-4.81,5.23-.7,10.47-1.35,15.94-2.06v35.26c-5.82-5.7-12.31-7.68-19.62-6.2-7.23,1.46-12.45,5.58-14.63,12.81-2,6.62,.21,12.32,5.19,16.68,6.29,5.52,13.7,6.7,21.48,3.59,7.75-3.1,11.81-9.12,11.85-17.45,.09-22.51-.03-45.01-.07-67.52Z"/><path class="cls-2" d="M128.44,32.67c.04,22.51,.16,45.01,.07,67.52-.03,8.32-4.1,14.34-11.85,17.45-7.78,3.12-15.19,1.93-21.48-3.59-4.98-4.37-7.19-10.06-5.19-16.68,2.18-7.22,7.41-11.35,14.63-12.81,7.31-1.48,13.8,.5,19.62,6.2V55.49c-5.47,.7-10.71,1.36-15.94,2.06-11.88,1.59-23.75,3.21-35.63,4.81-.25-.23-.48-.21-.7,.08-1.27,.14-2.54,.27-4.17,.45,0,5.25,0,10.21,0,15.17,0,13.13-.51,26.29,.13,39.4,.82,16.72-14.34,24.44-26.65,20.15-.62-.22-1.29-.3-1.94-.45-.21,.04-.3,.17-.29,.38-.36-.35-.72-.71-1.08-1.06,0,0,.03,.11,.03,.11-.66-.5-1.32-1-1.98-1.51-9.86-9.47-9.62-20.92,.58-27.9,6.87-4.7,15.98-4.78,23.07-.15,1.21,.79,2.35,1.68,4.16,3V39.61c4.08-.63,7.78-1.27,11.5-1.77,15.84-2.09,31.68-4.19,47.53-6.12,1.79-.22,3.71,.6,5.56,.94Z"/><path class="cls-3" d="M36.04,135.07c.66,.5,1.32,1,1.98,1.51-.66-.5-1.32-1-1.98-1.51Z"/><path class="cls-3" d="M37.99,136.47c.36,.35,.72,.71,1.08,1.06-.36-.35-.72-.71-1.08-1.06Z"/><path class="cls-1" d="M71.99,62.44c.22-.29,.45-.31,.7-.08l-.34,.13-.36-.05Z"/></svg>