<?xml version="1.0" encoding="utf-8"?>
<!-- Generator: Adobe Illustrator 26.5.0, SVG Export Plug-In . SVG Version: 6.00 Build 0)  -->
<svg version="1.1" id="Layer_1" xmlns="http://www.w3.org/2000/svg" xmlns:xlink="http://www.w3.org/1999/xlink" x="0px" y="0px"
	 viewBox="0 0 165.6 165.7" style="enable-background:new 0 0 165.6 165.7;" xml:space="preserve">
<style type="text/css">
	.st0{fill:#C2D100;}
	.st1{fill:#8C990A;}
	.st2{fill:url(#SVGID_1_);}
	.st3{fill:#F83F5D;}
</style>
<path class="st0" d="M59,161.8c-15.5-4-28.1-12.7-38.5-24.6C6.6,121.4-0.4,102.7,0,81.8C0.8,40,30.2,8.7,66.6,1.6
	c44.3-8.6,85.9,18.2,96.8,62.1c0.6,2.6,0.9,5.2,1.4,7.8c-0.4-0.3-0.8-0.6-1.1-0.9c-10.4-12-20.8-24.1-31.3-36
	c-0.9-1-2.5-1.2-3.8-1.9c-1.9-0.3-3.8-1.1-5.6-0.9c-15.9,1.9-31.7,4-47.5,6.1c-3.7,0.5-7.4,1.1-11.5,1.8V110c-1.8-1.3-3-2.2-4.2-3
	c-7.1-4.6-16.2-4.6-23.1,0.2c-10.2,7-10.4,18.4-0.6,27.9c0.7,0.5,1.3,1,2,1.5l0-0.1c0.4,0.4,0.7,0.7,1.1,1.1c0-0.2,0.1-0.3,0.3-0.4
	c1.8,2.6,3.5,5.4,5.6,7.9C49.5,150.7,54.3,156.2,59,161.8L59,161.8z"/>
<path class="st1" d="M128.4,32.7c1.3,0.6,2.9,0.9,3.8,1.9c10.5,12,20.9,24,31.3,36.1c0.3,0.4,0.8,0.6,1.1,0.9
	c6.5,41.9-22.4,83.5-64.1,92.2c-14.1,2.9-28,2.9-41.7-1.9c-4.7-5.6-9.4-11.1-14-16.7c-2-2.5-3.7-5.3-5.6-7.9
	c0.7,0.1,1.3,0.2,1.9,0.4c12.3,4.3,27.5-3.4,26.7-20.2c-0.7-13.1-0.1-26.3-0.1-39.4c0-5,0-9.9,0-15.2c1.6-0.2,2.9-0.3,4.2-0.5l0.4,0
	l0.3-0.1c11.9-1.6,23.8-3.2,35.6-4.8c5.2-0.7,10.5-1.3,15.9-2.1v35.3c-5.8-5.7-12.3-7.7-19.6-6.2C97.4,86,92.2,90.2,90,97.4
	c-2,6.6,0.2,12.3,5.2,16.7c6.3,5.5,13.7,6.7,21.5,3.6c7.8-3.1,11.8-9.1,11.9-17.4C128.6,77.7,128.5,55.2,128.4,32.7L128.4,32.7z"/>
<linearGradient id="SVGID_1_" gradientUnits="userSpaceOnUse" x1="93.7839" y1="131.8936" x2="61.8099" y2="16.0282">
	<stop  offset="0.1031" style="stop-color:#FFA4EE"/>
	<stop  offset="0.1442" style="stop-color:#E3B4F2"/>
	<stop  offset="0.2108" style="stop-color:#BCCBF8"/>
	<stop  offset="0.272" style="stop-color:#9FDBFC"/>
	<stop  offset="0.3252" style="stop-color:#8EE5FE"/>
	<stop  offset="0.3645" style="stop-color:#88E9FF"/>
	<stop  offset="0.4032" style="stop-color:#A2EEFF"/>
	<stop  offset="0.4563" style="stop-color:#BFF3FF"/>
	<stop  offset="0.516" style="stop-color:#D6F8FF"/>
	<stop  offset="0.5837" style="stop-color:#E9FBFF"/>
	<stop  offset="0.6642" style="stop-color:#F5FDFF"/>
	<stop  offset="0.7702" style="stop-color:#FDFFFF"/>
	<stop  offset="1" style="stop-color:#FFFFFF"/>
</linearGradient>
<path class="st2" d="M127.2,32.7c0,22,0.2,44,0.1,66c0,8.1-4,14-11.6,17.1c-7.6,3.1-14.8,1.9-21-3.5c-4.9-4.3-7-9.8-5.1-16.3
	c2.1-7.1,7.2-11.1,14.3-12.5c7.1-1.4,13.5,0.5,19.2,6.1V55c-5.3,0.7-10.5,1.3-15.6,2c-11.6,1.6-23.2,3.1-34.8,4.7
	c-0.2-0.2-0.5-0.2-0.7,0.1c-1.2,0.1-2.5,0.3-4.1,0.4c0,5.1,0,10,0,14.8c0,12.8-0.5,25.7,0.1,38.5c0.8,16.3-14,23.9-26.1,19.7
	c-0.6-0.2-1.3-0.3-1.9-0.4c-0.2,0-0.3,0.2-0.3,0.4c-0.4-0.3-0.7-0.7-1.1-1l0,0.1c-0.6-0.5-1.3-1-1.9-1.5c-9.6-9.3-9.4-20.5,0.6-27.3
	c6.7-4.6,15.6-4.7,22.6-0.1c1.2,0.8,2.3,1.6,4.1,2.9V39.5c4-0.6,7.6-1.2,11.2-1.7c15.5-2,31-4.1,46.5-6
	C123.5,31.6,125.4,32.4,127.2,32.7L127.2,32.7z"/>
<path class="st3" d="M72,62.4c0.2-0.3,0.4-0.3,0.7-0.1l-0.3,0.1L72,62.4z"/>
</svg>
