<?xml version="1.0" encoding="UTF-8"?><svg id="Layer_1" xmlns="http://www.w3.org/2000/svg" viewBox="0 0 252.5 250.75"><defs><style>.cls-1{fill:#240f00;}.cls-2{fill:#ec5f00;}.cls-3{fill:#fecc01;}.cls-4{fill:#943500;}.cls-5{fill:#c37100;}.cls-6{fill:#532000;}</style></defs><path class="cls-3" d="M112.87,248.4C55.13,246.55,4.29,193.29,.23,130.4-3.63,70.57,42.26,12.28,101.34,1.99c74.59-12.99,144.38,39.12,147.99,110.49-4.88,2.45-7.07-1.89-9.6-4.25-10.11-9.45-19.04-20.13-29.88-28.86-4.65-9.72-12.57-13.58-23.05-13.35-7.22,.16-14.46,.12-21.68-.07-4.98-.13-9.12-2.03-10.41-6.94-3.16-12.09-11.3-15.4-22.64-14.01-2.72,.33-5.47-.08-8.22-.19-1.25,.19-2.51,.47-3.74,.31-11.44-1.45-19.37,2.61-23.2,14.02-1.72,5.12-6.11,6.88-11.33,6.97-7.75,.12-15.51-.18-23.25,.17-14.8,.68-19.22,5.18-19.26,19.68-.07,25.27,.14,50.53-.12,75.8-.07,7.48,1.5,13.82,7.46,18.63,19.27,18.6,37.52,38.24,56.78,56.89,2.95,2.86,7.47,5.56,5.67,11.13h.01Z"/><path class="cls-5" d="M212.11,79.76c12.4,10.91,24.81,21.82,37.21,32.73l-.05,.11c3.84,8.24,1.8,16.78,1.26,25.23-11.08,63.52-48.23,100.97-111.87,111.9-8.58,.57-17.25,2.61-25.57-1.45,0,0-.24,.12-.23,.12-20.72-21.48-41.45-42.97-62.18-64.46,1.14-1.57,2.83-2.07,4.61-1.99,22.91,.97,45.86-.51,68.76,.79,19.73-.94,39.47-.19,59.2-.43,2.75-.03,5.5,0,8.25-.13,11.68-.62,16.87-5.68,17.04-17.32,.34-24.5,0-49.01,.2-73.51,.03-4.07-.91-8.66,3.37-11.59h0Z"/><path class="cls-3" d="M250.54,137.84c-.42-8.41-.84-16.82-1.26-25.23,5.22,8.17,2.91,16.72,1.26,25.23Z"/><path class="cls-4" d="M124.86,184.56c-24.73-.21-49.45-.41-74.18-.62-6.61-4.79-11.23-10.11-11.01-19.4,.57-24.68,1.15-49.43-.1-74.06-1.03-20.22,7.49-27.93,26.78-26.64,8.42,.56,16.9,.09,26.49,.09,2.86-18.59,14.37-24.74,31.89-21.34,2.1,2.52,2.22,5.28,.99,8.19-2.32,3.43-6.05,2.81-9.42,3.2-3.34,.38-6.56,.83-6.49,5.64,5.24,3.56,13.33-1.02,17.49,5.77,1.25,3.15,1.28,6.26-.17,9.33-2.31,3.34-6.08,2.99-9.43,3.62-21.93,4.14-37.8,20.54-40.15,41.57-2.52,22.54,9.43,42.55,30.62,51.31,3.25,1.35,6.62,2.16,10.11,2.55,2.97,.33,6.06,.55,7.6,3.82,.79,2.49,.85,4.87-1.02,6.96h0Z"/><path class="cls-6" d="M124.59,51.31c.04-2.9,.09-5.8,.13-8.71,16.66-2.62,31.03-1.26,33.07,18.49,17.99,9.6,44-9.73,54.31,18.67-.21,28.24-.59,56.48-.55,84.72,.02,13.72-6.61,20.5-19.99,20.52-22.24,.04-44.47-.27-66.7-.44-.13-2.31-.26-4.62-.39-6.92,.48-.6,1.04-1.1,1.68-1.53,2.91-1.6,6.18-1.82,9.34-2.5,19.75-4.25,39.27-21.9,37.86-50.33-1.11-22.28-16.03-40.55-38.74-44.94-2.67-.52-5.51-.33-7.93-1.91-.25-.29-.49-.58-.73-.87,0-3.54,0-7.08-.02-10.61,4.2-4.19,11-.78,15.3-5.32,.14-4.81-3.28-5.3-6.94-5.7-3.35-.37-7.14,.73-9.7-2.63h0Z"/><path class="cls-2" d="M125.52,177.18c-.36,.13-.71,.29-1.04,.47-56.19-5.52-60.88-67.21-32.82-89.66,10.18-8.15,21.17-12.97,34.3-12.41h0c3.72,4.53,2.75,9.64,1.82,14.74-1.52,4.06-5.31,4.6-8.79,5.77-5.3,1.79-10.93,3.12-14.17,8.41-.69,.93-1.49,1.75-2.39,2.48-12.33,11.73-9.65,39.93,13.17,47.9,4.3,1.5,9.57,1.32,12.09,6.35,.88,5.55,2.67,11.2-2.16,15.95h-.01Z"/><path class="cls-2" d="M124.59,51.31c5.7,.33,11.4,.67,17.58,1.03,1.18,3.17,2.37,6.37,4.05,10.89-7.34,.63-13.82,1.18-20.29,1.73-6.62-.6-13.23-1.2-20.94-1.91,1.21-3.8,2.36-7.37,3.75-11.75h15.85Z"/><path class="cls-2" d="M50.74,163.29c.85-5.84,3.38-10.03,9.92-9.78,6.15,.23,9.88,3.73,9.69,9.88-.18,5.62-3.96,9.44-9.44,9.59-5.91,.16-9.37-3.69-10.17-9.69Z"/><path class="cls-4" d="M125.52,177.18c.14-5.84,.29-11.68,.43-17.52,2.14-2.86,5.62-2.98,8.57-4.14,21.62-8.48,28.3-30.45,14.84-49.31-3.97-5.56-10.02-7.93-16.26-9.88-2.75-.86-6.11-.78-7.2-4.39,.02-5.45,.04-10.91,.05-16.36,26.06-.42,49.13,20.36,49.68,44.75,.77,33.87-18.39,55.61-50.11,56.85h0Z"/><path class="cls-2" d="M202.23,95.05h-27.7v-14.81h27.7v14.81Z"/><path class="cls-1" d="M125.89,91.94c20.35,3.63,34.03,14.5,32.55,36.36-1.27,18.86-13.69,29.15-32.5,31.36-15.18-1.97-27.17-8.56-31.8-24.06-3.4-11.37-1.69-22.15,6.97-31.09,.65,.22,1.22,.57,1.7,1.06,1.27,1.84,1.32,4.23,2.69,6.04,1.71,2.31,4.95,2.21,6.78,4.33,1.88,3.59-2.49,5.69-2.13,8.98,.59,3.88,2.6,6.47,6.82,6.09,2.74-.24,4.35-2.31,4.73-5,.55-3.88-1.84-5.89-5.06-7.23-1.36-.57-2.81-.98-3.83-2.16-2.92-2.46,.11-6.24-1.74-8.57-2.05-2.82-5.16-2.01-7.51-3.15-.58-.42-.94-.99-1.09-1.69,5.86-7.81,15-8.8,23.43-11.25v-.02Z"/><path class="cls-1" d="M101.12,104.5c.45-.44,.91-.87,1.35-1.31,.4,.28,.77,.62,1.09,.99,.32,1.14-.25,1.58-1.29,1.67-.38-.45-.77-.9-1.15-1.35Z"/><path class="cls-3" d="M112.53,116.22c5.52-.14,10.54,.71,11.86,7.27,.9,4.44-.95,7.79-4.97,9.74-4.28,2.07-7.69,.39-10.34-3.11-4.56-6.03,.15-9.83,3.48-13.94l-.04,.05h0Z"/><path class="cls-2" d="M102.27,105.85c.43-.56,.86-1.11,1.29-1.67,3.1,.3,6.85-.39,9.18,1.12,4.89,3.17,.07,7.21-.21,10.91l.04-.05c-7.31,.43-12.48-1.27-10.3-10.32h0Z"/></svg>