<?xml version="1.0" encoding="utf-8"?>
<!-- Generator: Adobe Illustrator 26.5.0, SVG Export Plug-In . SVG Version: 6.00 Build 0)  -->
<svg version="1.1" id="Layer_1" xmlns="http://www.w3.org/2000/svg" xmlns:xlink="http://www.w3.org/1999/xlink" x="0px" y="0px"
	 viewBox="0 0 694.8 694.7" style="enable-background:new 0 0 694.8 694.7;" xml:space="preserve">
<style type="text/css">
	.st0{fill:#FD5757;}
	.st1{fill:#C93D3D;}
	.st2{fill:#FCECA9;}
</style>
<g>
	<path class="st0" d="M347.3,694.7c-24.9,0.3-49.5-2.4-73.8-7.8c-65.2-14.5-121.6-45.2-169.3-91.9c-39-38.2-67.6-83.2-85.4-134.9
		c-16-46.2-21.7-93.7-17.5-142.4C6.2,261.2,24,209.3,54.2,161.6c12.2-19.2,26.1-37,41.9-53.4c41.5-43.3,90.7-74.3,147.9-92.3
		C286,2.6,329.2-2.4,373.1,1.1C456.7,7.8,529,40.5,589.2,98.9c51.9,50.3,85,111.2,99,182.2c11.6,58.8,8,116.8-10.7,173.9
		c-1.1,3.3-2.4,6.5-3.6,9.8c-2.3,1.1-4.1,1.3-5-1.7c-0.2-0.6-0.7-1-1.1-1.5c-6.9-9-14-17.9-20.8-27c-6.8-9-13.2-18.3-19.9-27.4
		c-5.3-7.1-11.1-13.9-16.4-21c-6.6-8.9-13-18-19.6-27c-3.4-4.6-6.9-9.1-10.4-13.6c-1.6-2-3.3-3.8-5-5.7c-2.8-8-8.3-13.3-15.5-17.5
		c-12.3-7.2-24.4-14.7-36.6-22.1c-38.2-23.2-76.4-46.4-114.6-69.5C358.4,200,307.7,169.2,257,138.4c-5.7-3.5-11.7-5.1-18.3-4.4
		c-15.4,1.7-28,12.3-28,27.9c0.1,123.7,0,247.5,0,371.2c0,8.8,3.8,15.7,10.7,20.9c6.5,4.9,14,7.1,22.1,7.2c-1.3,0.3-2.5,0.5-4.2,0.9
		c1.8,2.3,3.4,4.4,5,6.4c5.5,6.7,11.1,13.3,16.5,20c4.8,5.9,9.5,11.9,14.2,17.9c6,7.6,12,15.1,18.1,22.6c8.5,10.5,17,20.9,25.6,31.2
		c4.7,5.7,9.7,11.2,14.5,16.9c2.2,2.6,4.1,5.6,6.3,8.3C342.1,688.5,344.7,691.6,347.3,694.7z"/>
	<path class="st1" d="M334.5,694.7c-2.7-3.2-5.4-6.4-8-9.6c-2.2-2.8-4.2-5.8-6.5-8.5c-5-5.9-10.1-11.6-15.1-17.5
		c-8.9-10.7-17.8-21.5-26.6-32.3c-6.3-7.8-12.6-15.6-18.9-23.4c-4.9-6.2-9.8-12.4-14.8-18.5c-5.7-6.9-11.5-13.7-17.2-20.6
		c-1.7-2.1-3.3-4.2-5.2-6.6c1.8-0.4,3.1-0.6,4.4-0.9c6.4-0.3,12.1-2.8,17.5-6.1c6.9-4.3,14-8.5,20.9-12.8
		c12.6-7.6,25.1-15.2,37.7-22.8c85.2-51.5,170.4-103,255.6-154.6c2.4-1.5,4.9-3.1,6.9-5c8-7.7,9.6-17.1,7.2-27.5
		c1.7,2,3.6,3.8,5.2,5.9c3.7,4.6,7.3,9.3,10.9,14.1c6.8,9.3,13.5,18.7,20.4,27.9c5.5,7.4,11.5,14.4,17,21.7c7,9.4,13.7,19,20.7,28.3
		c7.1,9.4,14.4,18.6,21.6,27.9c0.4,0.5,1,1,1.2,1.5c0.9,3.1,2.9,3,5.2,1.8c-9.9,29.4-24.6,56.5-42.2,82
		c-16,23.3-34.7,44.3-55.8,63.2c-43.9,39.3-94.5,66.6-151.6,81.4C395.3,691.2,365.2,695.2,334.5,694.7z"/>
	<path class="st2" d="M575.7,339.9c2.3,10.1,0.7,19.2-6.9,26.6c-1.9,1.9-4.3,3.5-6.6,4.9c-81.8,49.8-163.7,99.7-245.5,149.5
		c-12.1,7.3-24.1,14.7-36.2,22.1c-6.7,4.1-13.5,8.2-20.1,12.4c-5.2,3.2-10.6,5.6-16.8,5.9c-8.1-0.1-15.6-2.3-22.1-7.2
		c-6.9-5.2-10.7-12.1-10.7-20.9c0-123.7,0-247.5,0-371.2c0-15.6,12.6-26.2,28-27.9c6.6-0.7,12.6,0.9,18.3,4.4
		c50.7,30.9,101.4,61.6,152.1,92.4c38.2,23.2,76.4,46.4,114.6,69.5c12.2,7.4,24.2,14.9,36.6,22.1
		C567.4,326.6,572.9,331.9,575.7,339.9z"/>
</g>
</svg>
