<?xml version="1.0" encoding="UTF-8"?><svg id="Layer_1" xmlns="http://www.w3.org/2000/svg" viewBox="0 0 168.24 168.05"><defs><style>.cls-1{fill:#0173fd;}.cls-2{fill:#2f2f2f;}.cls-3{fill:#02bafe;}.cls-4{fill:#dfdbd8;}.cls-5{fill:#484848;}.cls-6{fill:#fefefe;}</style></defs><path class="cls-3" d="M83.27,167.67c-19.05-.42-36.03-6.71-50.97-18.37C13.48,134.62,3.38,114.63,.53,91.5c-2.36-19.21,3.25-37.25,13.94-53.38C27.58,18.33,46.03,6.71,69.34,1.63c42.93-9.37,89.82,22.87,97.21,67.29,1.16,6.97,1.68,13.79,1.7,20.76,0,2.21-.31,4.3-1.38,6.25-1.96-.41-2.99-2.05-4.27-3.32-17.95-17.9-35.87-35.83-53.82-53.73-1.26-1.26-2.24-3.01-4.38-3.03-5.36-5.28-10.74-10.53-19.13-10.09-.41-.96-1.27-.89-2.08-.89-11.42-.05-22.78,10.93-22.95,22.4-.16,10.93-.1,21.87-.14,32.8-3.74-.4-5.6-3.07-7.15-6.16-1.86-.25-3.63-.5-5.43-.74-1.08,27.24-1.67,34.78,15.7,49.53,3.24,5.05,8.49,8.27,11.96,13.11-4.94,.06-9.89,.11-14.83,.17-2.11,1.73-.85,4.28-1.43,5.33,6.3,6.58,12.23,12.66,18.01,18.88,2.22,2.39,5.32,4.08,6.35,7.5Z"/><path class="cls-1" d="M75.18,135.8c-3.47-4.84-8.72-8.06-11.96-13.11,6.79,3.24,14.54,3.98,20.98,8.12,5.09-2.98,10.86-4.37,16.15-6.87,9.8-4.64,16.99-11.66,19.75-22.51,2.08-8.15,.84-16.44,1.11-24.67,.06-1.83-1.03-3-2.65-3.48-3.75,.74-3.05,3.91-3.65,6.7h-8.54c.68-1.77,2.09-3.08,1.97-5.36-.65-12.99,1.87-26.29-3.94-38.76,2.14,.02,3.11,1.78,4.38,3.03,17.95,17.9,35.87,35.83,53.82,53.73,1.28,1.27,2.3,2.91,4.27,3.32-6.75,36.56-28.21,59.62-64,69.3-6.35,1.72-12.81,3.65-19.58,2.44-1.02-3.42-4.12-5.1-6.35-7.5-5.78-6.22-11.71-12.3-18.01-18.88,.58-1.05-.69-3.61,1.43-5.33,.42,1.88,.84,3.77,1.28,5.75h45.51c1.38-2.22,1.32-3.87,.52-5.77-3.97,0-7.77,.02-11.57,0-4.08-.02-8.32,.7-11.8-2.36-2.78,1.82-5.69,3.06-9.12,2.22Z"/><path class="cls-5" d="M84.19,130.81c-6.44-4.14-14.19-4.88-20.98-8.12-17.37-14.76-16.78-22.29-15.7-49.53,1.8,.25,3.57,.49,5.43,.74,1.54,3.09,3.41,5.77,7.15,6.16,.1,.23,.16,.46,.18,.71-2.06,0-4.12,0-6.17,0,2.12,1.04,4.26,1.85,6.19,.01l23.94,.16c0,11.24,0,22.47,.01,33.71-13.3,.25-24.2-12.58-24.07-24.38,.04-3.25-.77-5.79-4.52-6.28-2.01,1.98-2.45,4.24-2.6,6.84-.94,16.16,14.55,31.45,31.18,32.21-.01,2.59-.03,5.17-.04,7.76Z"/><path class="cls-6" d="M84.23,80.95l-23.94-.16h-.02c-.02-.26-.08-.5-.18-.72,.04-10.93-.02-21.87,.14-32.8,.17-11.47,11.53-22.45,22.95-22.4,.82,0,1.67-.07,2.08,.89-2.25,4.13-.61,8.56-1.02,12.83-.93,.14-1.86,.27-2.89,.42-.16,2.32-.68,4.52,.37,6.75,.91-.07,1.72-.13,2.52-.2,.65,.04,1.31,.09,1.96,.13,.33,.04,.67,.07,1,.11,.2,2.15-2.74,1.75-2.91,3.58-.68,5.73,.91,11.61-1.13,17.25l-.97,.27c-.73-.11-1.05,.2-.94,.93,0,1.34,0,2.69,.01,4.03-.11,.72,.19,1.03,.92,.92,.68,.11,1.37,.21,2.05,.32-.36,2.6,.15,5.09,.93,7.55-.32,.1-.63,.2-.95,.29Zm-4.17-27.95h-5.91v5.76c2.18,.04,4.09,.54,5.91-.3v-5.46Z"/><path class="cls-4" d="M83.17,66.63c2.03-5.64,.45-11.51,1.13-17.25,.17-1.84,3.11-1.43,2.91-3.58,.05-.33,.03-.65-.06-.97v-5.86h-2.97l.07-.39c.4-4.27-1.23-8.71,1.02-12.83,8.39-.44,13.76,4.81,19.13,10.09,5.81,12.47,3.29,25.77,3.94,38.76,.11,2.28-1.29,3.59-1.97,5.36-7.01,1.82-14.12,.47-21.18,.69-.78-2.46-1.29-4.95-.93-7.55l-.06-.36c.92,.07,1.84,.15,2.96,.24v-6.04h-2.91c-.35-.1-.71-.21-1.06-.31Zm10.93-7.87v-5.83c-2.11-.09-4.02-.56-5.71,.18v5.65h5.71Z"/><path class="cls-5" d="M84.23,141.72h-22.61c-.44-1.98-.86-3.87-1.28-5.75,4.94-.06,9.89-.11,14.83-.17,3.42,.84,6.34-.4,9.11-2.21-.02,2.71-.04,5.42-.06,8.13Z"/><path class="cls-2" d="M85.18,80.65c7.06-.22,14.17,1.13,21.18-.69,2.81,0,5.61,0,8.54,0,.61-2.79-.09-5.96,3.65-6.7,1.62,.48,2.71,1.65,2.65,3.48-.26,8.23,.97,16.53-1.11,24.67-2.77,10.85-9.95,17.88-19.75,22.51-5.29,2.5-11.06,3.9-16.15,6.87,.01-2.59,.03-5.17,.04-7.76,17.47-2.03,34.05-14.82,30.83-35.76-1.3-1.13-2.1-2.95-5.11-3.55-2.98,8.2-2.1,18.24-11.09,25.25-3.97,1.23-8.05,6.66-14.62,5.67,0-11.24,0-22.47-.01-33.71,.32-.1,.63-.19,.95-.29Z"/><path class="cls-2" d="M84.23,141.72c.02-2.71,.04-5.42,.06-8.13,3.48,3.05,7.72,2.33,11.8,2.36,3.8,.02,7.6,0,11.57,0,.8,1.9,.86,3.55-.52,5.77h-22.9Z"/><path class="cls-1" d="M84.24,114.65c6.58,.99,10.65-4.44,14.62-5.67,8.99-7.01,8.11-17.05,11.09-25.25,3.01,.6,3.81,2.41,5.11,3.55,3.22,20.94-13.36,33.74-30.83,35.76-16.62-.76-32.11-16.05-31.18-32.21,.15-2.6,.58-4.86,2.6-6.84,3.75,.5,4.56,3.03,4.52,6.28-.13,11.8,10.77,24.63,24.07,24.38Z"/><path class="cls-2" d="M60.29,80.78c-1.93,1.83-4.07,1.02-6.19-.01,2.06,0,4.12,0,6.17,0,0,0,.02,.01,.02,.01Z"/><path class="cls-2" d="M80.06,53v5.46c-1.82,.83-3.73,.34-5.91,.3v-5.76h5.91Z"/><path class="cls-5" d="M84.25,45.56c-.81,.06-1.61,.13-2.52,.2-1.06-2.22-.54-4.43-.37-6.75,1.03-.15,1.96-.28,2.89-.42,0,0-.07,.39-.07,.39,.02,2.2,.05,4.39,.07,6.59Z"/><path class="cls-2" d="M84.25,45.56c-.02-2.2-.05-4.39-.07-6.59h2.97v5.86c-.31,.29-.63,.57-.94,.86-.65-.04-1.31-.09-1.96-.13Z"/><path class="cls-5" d="M83.17,66.63c.35,.1,.71,.21,1.06,.31-.02,1.93-.03,3.87-.05,5.8l.06,.36c-.68-.11-1.37-.21-2.05-.32-.31-.31-.61-.61-.92-.92,0-1.34,0-2.69-.01-4.03,.31-.31,.62-.62,.94-.93,.32-.09,.65-.18,.97-.27Z"/><path class="cls-5" d="M86.21,45.69c.31-.29,.63-.57,.94-.86,.09,.32,.11,.64,.06,.97-.33-.04-.67-.07-1-.11Z"/><path class="cls-2" d="M82.2,66.9c-.31,.31-.62,.62-.94,.93-.11-.73,.2-1.04,.94-.93Z"/><path class="cls-2" d="M81.28,71.87c.31,.31,.61,.61,.92,.92-.72,.11-1.03-.19-.92-.92Z"/><path class="cls-2" d="M94.1,58.76h-5.71v-5.65c1.69-.74,3.6-.27,5.71-.18v5.83Z"/><path class="cls-2" d="M84.18,72.74c.02-1.93,.03-3.87,.05-5.8h2.91v6.04c-1.11-.09-2.03-.16-2.96-.24Z"/></svg>