<?xml version="1.0" encoding="UTF-8"?><svg id="Layer_1" xmlns="http://www.w3.org/2000/svg" viewBox="0 0 42.24 42.24"><defs><style>.cls-1{fill:#fcda82;}.cls-2{fill:#0de1fe;}.cls-3{fill:#54f48f;}.cls-4{fill:#5f3bd1;}.cls-5{fill:#8960fc;}.cls-6{fill:#fdfdfe;}.cls-7{fill:#3a33a0;}.cls-8{fill:#f855fe;}.cls-9{fill:#f86afe;}.cls-10{fill:#41f1fc;}.cls-11{fill:#f7f569;}.cls-12{fill:#3f3da1;}</style></defs><path class="cls-6" d="M.02,19.92C.02,13.53,.03,7.13,0,.73,0,.14,.14,0,.74,0c13.59,.02,27.18,.02,40.77,0,.6,0,.74,.14,.73,.73-.02,13.59-.02,27.18,0,40.77,0,.6-.14,.74-.73,.73-13.59-.02-27.18-.02-40.77,0-.6,0-.74-.13-.74-.73,.03-6.4,.02-12.79,.02-19.19,.12-.08,.23-.07,.33,.04,.32,.5,.22,1.09,.3,1.63,1.42,9.01,7.9,15.71,16.9,17.28,1.71,.3,3.46,.63,5.23,.26,4.89-.45,9.13-2.4,12.6-5.8,3.6-3.53,5.66-7.89,6.04-12.97,.29-4.78-.78-9.21-3.45-13.2C30.84-1.06,15.63-2.52,6.56,6.49,3.04,9.99,1.06,14.17,.56,19.08c-.03,.28-.05,.56-.21,.8-.1,.11-.21,.12-.33,.04Z"/><path class="cls-9" d="M.02,19.92c.06,0,.12,0,.17,.05,.62,.77,.62,1.54,0,2.3-.04,.05-.1,.06-.16,.05v-2.4Z"/><path class="cls-5" d="M.18,22.27c.1-.77,.09-1.53,0-2.3,.16-3.74,1.26-7.21,3.34-10.3C7.02,4.5,11.84,1.32,18.09,.48c7.09-.95,13.16,1.21,18.06,6.35,4.22,4.43,5.97,9.85,5.55,15.96-.74-.09-1.14-.67-1.61-1.13-1.93-1.9-3.83-3.81-5.74-5.73-.45-.45-.91-.88-1.48-1.19-1.02-1.67-2.58-2.22-4.43-2.18-.47,0-.95,.04-1.41-.11-.89-.69-1.49-1.69-2.44-2.32-.1-.06-.19-.13-.28-.2-.13-.1-.26-.22-.38-.34-.63-.76-1.18-1.63-2.2-1.93-1.13-.32-2.2-.21-3.1,.64-.91,.85-1.62,1.84-2.11,2.99-.22,.51-.39,1.05-.94,1.33-.35,.13-.7,.05-1.05-.03-.82-.08-1.63-.06-2.4-.51-.87-.5-1.35,.32-1.9,.79-1.99,1.64-2.26,2.99-1.07,5.28,.5,.95,1.19,1.78,1.74,2.7,.13,.5-.2,.83-.47,1.16-.53,.65-.95,1.37-1.32,2.13-1.1,2.26-.88,3.28,1.1,5.13,4.1,4.25,8.18,8.52,12.57,12.48-3.48,.45-6.84-.14-10-1.54C5.72,37.08,1.62,31.55,.29,23.94c-.1-.55-.08-1.11-.11-1.67Z"/><path class="cls-4" d="M22.81,41.77c-.3-.07-.63-.04-.89-.3-1.26-1.26-2.53-2.52-3.8-3.78-1.04-1.03-2.12-2.02-3.11-3.1-1.61-1.75-3.48-3.25-4.91-5.17,.64-.31,1.25,.05,1.88,.09,.67,.21,1.34,.2,2.01,0,.57-.1,1.14-.14,1.7,.02,.36,.13,.55,.43,.69,.77,.58,1.44,1.38,2.73,2.41,3.89,.07,.64,.2,1.19,1.03,.64,1-.05,1.92-.41,2.87-.66,.11,.04,.2,.1,.28,.19,.17,.2,.28,.51,.62,.42,.33-.08,.31-.4,.38-.66,.1-.38-.21-.65-.23-1,.98-.71,1.61-1.57,1.46-2.87-.04-.37,.24-.66,.64-.76,1.3-.26,2.58,.29,3.91-.02,2.83-.66,3.78-2.47,2.58-5.15-.46-1.02-1.19-1.88-1.71-2.87-.1-1.35,.94-2.03,1.69-2.88,1.18-.78,1.19-.8,.54-2.67-.04-.45-.11-.9,.24-1.28,.46-.01,.71,.32,.99,.6,2.55,2.52,5.09,5.04,7.63,7.56-.16,3.2-1.16,6.15-2.79,8.87-3.37,5.62-8.36,8.9-14.79,10.04-.43,.08-.87,.05-1.31,.07Z"/><path class="cls-3" d="M15.76,12.48c.59-1.38,1.13-2.79,2.19-3.9,1.94-2.04,4.15-1.9,5.81,.37,.16,.22,.33,.44,.5,.67,.08,.08,.15,.16,.22,.25h-.02c.77,.68,1.03,1.64,1.4,2.55,.09,.38,.26,.73,.43,1.08,.11,.9,.34,1.79,.42,2.69,.01,.27,.03,.53,.12,.79,.07,.35,.37,.63,.37,1.01-.38,.56,.11,1.1,.06,1.65-.09,1.05-.03,2.1,.02,3.16-.41,.62-.75,1.38-1.73,.86-.41-1.16-.15-2.36-.21-3.54-.03-.59-.03-1.19-.09-1.78,.05-.59,0-1.17-.17-1.74,.07-.89-.2-1.73-.5-2.55,0-.48-.13-.93-.36-1.36-.33-1.07-.79-2.09-1.47-2.99-1.18-1.56-2.61-1.6-3.89-.15-.86,.98-1.34,2.15-1.72,3.37-.6,.26-1.03,.04-1.37-.46Z"/><path class="cls-10" d="M12.02,29.76c-.67,.09-1.29-.19-1.93-.33-2.06-1.48-2.39-3-1.29-5.32,.55-1.15,1.43-2.07,2.04-3.17,.1-.37,.4-.59,.61-.87,.5-.38,.95-.81,1.38-1.26,.52-.55,1.1-1.01,1.73-1.42,.42-.23,.75-.59,1.18-.79,.54-.21,.98-.57,1.45-.88,.18-.11,.36-.21,.55-.3,.52-.17,.85-.63,1.3-.9,.63-.02,1.15,.18,1.45,.78-.04,.6-.57,.73-.98,.93-1.32,.67-2.58,1.43-3.74,2.36-.36,.26-.73,.5-1.09,.76-.76,.55-1.46,1.15-2.11,1.82-.34,.26-.55,.62-.76,.98-.15,.16-.32,.3-.48,.46-.66,.8-1.19,1.68-1.53,2.66-.59,1.71,.13,2.89,1.93,3.15,.82,.12,1.66,.09,2.49,0,.39-.04,.78-.17,1.17,.01,.41,.34,.87,.67,.37,1.27-.63,.01-1.25,.03-1.88,.04-.63,0-1.26,0-1.89,0Z"/><path class="cls-11" d="M20.46,15.36c-.38-.38-.87-.54-1.38-.65-.93,0-1.77-.48-2.69-.56-.36-.09-.72-.17-1.08-.25-.8-.2-1.66-.17-2.41-.59-.47-.56-.44-.93,.39-.93,.43,0,.86-.07,1.29,.06,.39,.01,.78,.03,1.17,.04,.43,.14,.86,.29,1.3,.43,1.43-.26,2.57,.55,3.8,1.02,.5,.31,1.07,.46,1.57,.76,.95,.61,2.08,.98,2.81,1.92,.35,.42,.7,.84,.24,1.39-.23,.18-.47,.1-.66-.03-1.41-.93-2.95-1.65-4.34-2.6Z"/><path class="cls-11" d="M11.49,20.17c0,.43-.28,.64-.65,.78-1.17-1.21-2.08-2.58-2.5-4.22-.46-1.79,.1-3.02,1.76-3.92,.83-.09,.99,.26,.64,.96-1.57,1.7-1.57,2.29-.03,5,.28,.46,.74,.82,.78,1.41Z"/><path class="cls-10" d="M26.14,13.56c-.54-.17-.47-.61-.44-1.03,.33-.4,.73-.49,1.19-.25,1.03,.05,2.05-.11,3.08,.09,1.41,.27,2.49,.93,3.11,2.27,0,.48,.01,.95,.02,1.43-.28,.27-.6,.28-.93,.12-1.03-2.74-2.53-2.7-4.77-2.46-.43,.04-.87,.1-1.26-.16Z"/><path class="cls-1" d="M10.56,13.68c.48-.62-.12-.68-.45-.88q1.06-1.37,2.75-.65c.55,.23,1.19-.07,1.72,.28-.39,.02-.78,.06-1.17,.05-.74-.02-.65,.34-.41,.8-.07,.69-.54,1.02-1.15,1.11-.58,.09-1.09-.07-1.29-.71Z"/><path class="cls-4" d="M26.89,12.28c-.36,.24-.79,.2-1.19,.25l-1.25-2.67c1.13,.49,1.94,1.3,2.44,2.42Z"/><path class="cls-12" d="M24.47,9.87c-.14-.03-.2-.12-.22-.25,.07,.08,.14,.17,.22,.25Z"/><path class="cls-3" d="M15.79,29.71c.17-.53-.24-.83-.46-1.21-.61-1.15-.81-2.37-.6-3.66,.69-.48,1.03,.05,1.42,.47,.27,.89,.3,1.84,.61,2.72,.09,.44,.26,.85,.46,1.25,.27,1.18,.74,2.27,1.54,3.19,.64,.74,1.4,1.41,2.46,1.08,.99-.31,1.57-1.04,1.55-2.15-.01-.52,.23-.91,.67-1.19,.34-.22,.64-.48,.77-.87,.18-.37,.42-.71,.36-1.15,.24-.86,.58-1.69,.54-2.61,.4-.56,.82-1.1,1.64-.79,.31,1.18-.24,2.29-.32,3.43-.15,.46-.4,.89-.58,1.34-.36,.3-.57,.68-.46,1.14,.28,1.15,0,1.94-1.26,2.21-.15,.03-.25,.28-.37,.43,0,.04,0,.09-.01,.13-.03,.08-.08,.16-.13,.23-.05,.07-.11,.13-.17,.19-.03,.03-.06,.06-.09,.09-.06,.06-.13,.12-.19,.18-.11,.08-.22,.14-.36,.14-.96,.53-1.94,.97-3.08,.57-.47,.09-.77-.14-1-.52-1.45-1.25-2.18-2.95-2.92-4.64Z"/><path class="cls-10" d="M26.61,24.69c-.47,.29-.93,.58-1.4,.87-.65,1.15-1.98,1.27-2.92,1.97-.69,.1-1.25-.05-1.47-.81,1.55-1.14,3.19-2.12,4.92-2.98,.6-.05,.82-.69,1.34-.87,.17-.21,.2-.51,.41-.7,.43-.5,1.04-.81,1.44-1.33,.28-.24,.55-.48,.74-.8,.52-.56,.84-1.31,1.56-1.7,.44-.12,.82-.05,1.06,.39-.48,.88-1.35,1.52-1.65,2.53-.01,.43-.37,.63-.58,.93-1.15,.83-2.07,1.98-3.44,2.5Z"/><path class="cls-11" d="M29.94,21.95c.03-.43,.25-.67,.69-.7,1,1.1,1.81,2.31,2.27,3.73,.77,2.35-.29,4.28-2.69,4.72-1.45,.27-2.92,.24-4.37-.15-.36-.45-.14-.76,.25-1.03,.66-.33,1.33,0,1.99-.04,.67-.05,1.35,0,2.01-.18,1.36-.39,1.92-1.38,1.55-2.73-.23-.85-.65-1.62-1.14-2.35-.27-.39-.59-.76-.57-1.28Z"/><path class="cls-2" d="M32.28,18.73c-.35-.05-.66-.31-1.04-.23-.72-1.34-.41-2.18,.88-2.43,.33,0,.65,0,.98,0,.15,.27,.34,.53,.45,.82,.35,.99-.04,1.55-1.27,1.84Z"/><path class="cls-4" d="M23.29,33.83c.08-.08,.16-.16,.24-.24,.07-.09,.17-.15,.22-.25h0c.77-.1,.51,.42,.5,.81-.02,.46,.06,.99-.59,1.09-.51,.08-.82-.15-.85-.69,.15-.12,.09-.34,.23-.46l.25-.25h.01Z"/><path class="cls-4" d="M18.71,34.35c.33,.17,.67,.35,1,.52-.03,.58-.35,.77-.84,.55-.54-.24-.38-.67-.15-1.06Z"/><path class="cls-2" d="M12.02,29.76c.63-.33,1.26-.33,1.89,0-.63,.25-1.26,.27-1.89,0Z"/><path class="cls-4" d="M23.03,34.09c0,.2-.04,.37-.23,.46,0-.08-.01-.17-.02-.25,.08-.07,.16-.14,.25-.21Z"/><path class="cls-4" d="M25.73,23.74c-1.43,1.35-3.2,2.17-4.93,3.04-.55,.19-1.03-.07-1.47-.31-1.46-.83-3.14-1.38-4-3.02-.04-1.67-.41-3.35,.27-4.97,1.01-1.1,2.34-1.73,3.62-2.43,.41-.23,.83-.46,1.24-.69,1.42,.32,2.56,1.2,3.79,1.89,.41,.23,.81,.49,1.21,.74,.49,1.38,.25,2.8,.29,4.21,.02,.51-.02,1.02-.03,1.53Z"/><path class="cls-4" d="M20.92,14.17c-1.29-.42-2.58-.84-3.87-1.27,.1-2.02,1.15-3.48,2.79-4.53,.66-.42,1.39-.28,2.02,.16,1.47,1.03,2.22,2.52,2.58,4.23-1.02,.86-2.23,1.23-3.52,1.41Z"/><path class="cls-4" d="M32.12,16.07c-1.2,.48-.97,1.48-.88,2.43-.52,.55-.83,1.27-1.48,1.71-1.2-.43-2.09-1.22-2.76-2.28-.22-.26-.45-.52-.36-.9-.21-.19-.06-.47-.17-.69-.04-.94-.62-1.81-.33-2.78,1.28-.23,2.55-.44,3.86-.13,1.47,.34,2.13,1.12,2.13,2.64Z"/><path class="cls-4" d="M25.23,16.6c-.99-.58-1.97-1.16-2.96-1.74,.5-.92,1.31-1.24,2.48-.97,.43,.85,.84,1.71,.48,2.71Z"/><path class="cls-10" d="M24.75,13.89c-.87,.2-1.79,.3-2.48,.97-.47-.2-1.01-.26-1.35-.69,1.11-.64,2.36-.9,3.52-1.41,.32,.32,.63,.63,.31,1.13Z"/><path class="cls-11" d="M27,17.93l2.76,2.28c-.07,.44-.38,.63-.77,.75-.38,.02-.6-.24-.85-.45-.31-.42-.96-.55-1.05-1.17-.31-.45-.95-.88-.09-1.41Z"/><path class="cls-4" d="M27.09,19.33c.44,.31,.91,.59,1.22,1.07-.74,.47-.57,1.27-.7,1.96-.18,.17-.36,.34-.55,.51-.31-1.18-.43-2.36,.03-3.54Z"/><path class="cls-12" d="M26.47,16.34c.22,.19,.16,.45,.17,.69-.19-.2-.2-.44-.17-.69Z"/><path class="cls-4" d="M14.87,24.75c-.1,1.28,.51,2.48,.46,3.76-1.48,.44-2.98,.5-4.45,.04-1.33-.42-1.84-1.42-1.53-2.79,.3-1.35,1-2.48,1.93-3.47,.47,.26,.59,1.26,1.45,.69,1.03,.21,1.75,.8,2.14,1.77Z"/><path class="cls-4" d="M10.56,13.68c1.17,.79,1.45,.74,2.44-.39,.81,0,1.62,.05,2.38,.38,.42,1.36-.04,2.6-.58,3.82-.61,.5-1.22,1-1.83,1.49-.81,.4-1.61,.26-2.41-.01-.55-.54-.84-1.25-1.08-1.94-.53-1.52-.31-2.61,1.07-3.34Z"/><path class="cls-11" d="M14.87,24.75c-.64-.67-1.36-1.25-2.13-1.77-.29,0-.47-.18-.67-.35-.08-.07-.15-.15-.21-.23-.1-.12-.17-.26-.15-.42,.05-.45,.25-.77,.73-.84,.87,.24,1.29,1.12,2.06,1.5,.42,.32,.85,.64,1.12,1.11,1.54,1.33,3.29,2.3,5.18,3.03,.44,.3,.89,.59,1.45,.59,.92,.04,1.79,.2,2.45,.91,.36,.46-.07,.72-.27,1.04-1.34,.24-2.4-.52-3.54-1-.57-.26-1.17-.47-1.72-.77-1.06-.61-2.26-1.02-3.03-2.07-.42-.25-.84-.49-1.27-.74Z"/><path class="cls-3" d="M15.62,23.74c-.4-.29-.8-.59-1.21-.88-.03-.37-.11-.73-.09-1.1,0-.38-.01-.76,0-1.14,.01-.46-.05-.92,.25-1.33,.21-.45,.64-.62,1.04-.82,0,1.76,.01,3.51,.02,5.27Z"/><path class="cls-4" d="M14.57,21.84c.04,.36,.18,.73-.16,1.03-.78-.44-1.39-1.07-1.97-1.73,.52-.83,1.16-1.52,2.13-1.84,.07,.45,.08,.9,0,1.34-.48,.4-.31,.8,.01,1.19Z"/><path class="cls-3" d="M14.81,17.48c.02-1.3,.47-2.53,.58-3.82,.37,.06,.78,0,1.06,.33,.17,.26,.16,.55,.15,.85-.02,.28-.1,.54-.19,.8-.12,.33-.23,.66-.39,.97-.44,.24-.68,.75-1.21,.87Z"/><path class="cls-4" d="M16.3,14.88c.05-.3,.1-.59,.15-.89,.98-.14,1.8,.31,2.63,.72-.25,.57-.79,.7-1.31,.88-.44-.34-1.04-.36-1.47-.72Z"/><path class="cls-4" d="M10.58,18.96c.81-.41,1.61,.12,2.41,.01-.44,.47-.81,1.03-1.49,1.2-.31-.4-.61-.81-.92-1.21Z"/><path class="cls-4" d="M12.02,22.31c.3,.16,.56,.37,.73,.67,.02,.66-.23,.93-.81,.46-.35-.28-.76-.59-.66-1.16,.07-.2,.27-.23,.43-.3,.1,.11,.2,.22,.3,.33h0Z"/><path class="cls-4" d="M16.3,14.88c.52,.17,1.44-.46,1.47,.72-.11,.16-.26,.25-.45,.27-.46,.21-.91,.33-1.19-.26,.06-.24,.12-.49,.18-.73Z"/><path class="cls-4" d="M16.12,15.61c.36,.26,.78,.24,1.19,.26-.39,.32-.73,.73-1.3,.74-.22-.36,.05-.67,.11-1Z"/><path class="cls-4" d="M29.94,21.95c.83,1.06,1.65,2.12,2.04,3.44,.5,1.69-.16,2.94-1.9,3.27-1.32,.26-2.67,.3-3.99-.13-.06-1.31,.53-2.54,.51-3.84,1.06-.97,2.1-1.96,3.33-2.74Z"/><path class="cls-4" d="M20.76,27.96c1.18,.58,2.44,.92,3.67,1.36,.12,.53-.15,.81-.62,.99-.6,.23-.92,.69-.79,1.31,.23,1.12-.57,1.6-1.28,2.07-.77,.51-1.61,.38-2.33-.18-1.37-1.07-2.21-2.46-2.43-4.21,1.11-.86,2.41-1.22,3.78-1.34Z"/><path class="cls-4" d="M16.14,25.48c1,.61,2.01,1.22,3.01,1.83-.57,1.02-1.51,1.1-2.53,.96-.41-.89-.75-1.78-.48-2.79Z"/><path class="cls-4" d="M24.7,28.28c-.83-.28-1.71-.42-2.45-.91,.85-.84,2-1.17,2.96-1.82,.41,1.02-.04,1.88-.51,2.73Z"/><path class="cls-10" d="M16.62,28.27c.87-.25,1.79-.38,2.53-.96,.54,.22,1.07,.43,1.61,.65-1.26,.45-2.52,.89-3.78,1.34-.39-.25-.5-.59-.36-1.03Z"/><path class="cls-7" d="M23.75,33.34c-.07,.08-.15,.17-.22,.25,.07-.08,.15-.17,.22-.25Z"/><path class="cls-4" d="M27.61,22.36c0-.12,.01-.24-.03-.35q-.49-1.16,.73-1.61c.23,.19,.45,.37,.68,.56-.25,.68-.86,.99-1.38,1.4Z"/><path class="cls-7" d="M23.29,33.83s.06,.07,.1,.11c-.04-.03-.07-.06-.11-.1,0,0,.01-.01,.01-.01Z"/><path class="cls-9" d="M17.97,21.6c.08-2.24,.82-3.1,2.68-3.12,.45,.54,.34,1.19,.36,1.81,.01,.75,0,1.5,.1,2.24,.07,.49,.05,.95-.47,1.23-.92,.14-1.51-.45-2.15-.96-.43-.28-.8-.6-.52-1.19Z"/><path class="cls-8" d="M20.64,23.75c.11-.25,.3-.5,.22-.78-.42-1.48-.14-3-.22-4.49,1.69,0,2.67,.92,2.71,2.55,.04,1.62-1.02,2.68-2.71,2.73Z"/><path class="cls-4" d="M17.97,21.6l.52,1.19c-.38,.06-.64-.13-.89-.4-.56-.61-.29-.78,.37-.79Z"/><path class="cls-4" d="M14.57,21.84c-.43-.06-.79-.3-.8-.72-.01-.47,.42-.47,.78-.48,0,.4,0,.79,.01,1.19Z"/></svg>